<svg id="Layer" enable-background="new 0 0 64 64" height="512" viewBox="0 0 64 64" width="512" xmlns="http://www.w3.org/2000/svg"><path d="m54 24v26c0 2.21-1.79 4-4 4h-36c-2.21 0-4-1.79-4-4v-26z" fill="#4dd0e1"/><path d="m54 14v10h-44v-10c0-2.21 1.79-4 4-4h36c2.21 0 4 1.79 4 4z" fill="#ff7043"/><path d="m50 8h-36c-3.309 0-6 2.691-6 6v36c0 3.309 2.691 6 6 6h36c3.309 0 6-2.691 6-6v-36c0-3.309-2.691-6-6-6zm-36 4h36c1.103 0 2 .897 2 2v8h-40v-8c0-1.103.897-2 2-2zm36 40h-36c-1.103 0-2-.897-2-2v-24h40v24c0 1.103-.897 2-2 2z" fill="#012e52"/></svg>